<!DOCTYPE svg PUBLIC "-//W3C//DTD SVG 1.1//EN" "http://www.w3.org/Graphics/SVG/1.1/DTD/svg11.dtd">
<svg
	xmlns="http://www.w3.org/2000/svg"
	version="1.1"
	viewBox="0 0 14 73"
	width="14"
	height="73"
>
	<title>∫</title>
	<path
		fill="currentcolor"
		stroke="none"
		d="M8.424 24.124c0-5.42282092-.04666464-8.09901882-.18665424-11.9724628-.09332366-1.97193488-.13998614-3.80301754-.13998614-4.85941142 0-2.8170501.5132903-4.43685348 1.35321926-4.43685348.2799792 0 .51329376.14085222.60661872.4225573.79326864 1.9015091 1.11990816 2.32406638 1.91317248 2.32406638.93325824 0 1.6331976-.98596744 1.6331976-2.25363996 0-1.9015091-1.11990384-3.16918161-2.79976608-3.16918161-2.09982672 0-3.68636054 2.04236131-4.33964002 5.493248-.69994152 3.80301755-1.16656977 10.98649536-1.16656977 18.38125181v24.29705906c0 5.07068876.04666291 7.60602988.18665121 11.9020318.09332583 2.04236392.1399883 4.15515036.1399883 5.28196936 0 2.4649186-.5599532 4.08472784-1.44654638 4.08472784-.37330243 0-.69994195-.35213216-.97991856-1.26767708-.41996534-1.19724804-.79326777-1.54937368-1.44654681-1.54937368-.93325565 0-1.6331976.98596744-1.6331976 2.32406704 0 1.8310768 1.11990686 3.09875388 2.79976737 3.09875388 2.09982586 0 3.68636098-2.04236392 4.33964002-5.49324996C7.95737131 62.92886428 8.424 55.8158116 8.424 48.35063328z"
	/>
</svg>
